<svg width="40" height="46" viewBox="0 0 40 46" fill="none" xmlns="http://www.w3.org/2000/svg">
<path id="Vector" fill-rule="evenodd" clip-rule="evenodd" d="M22.9349 0C23.5697 0 25.1188 0.125546 26.3631 0.326419C27.6075 0.502183 29.5628 0.954148 30.6802 1.30568C31.7976 1.68231 33.6514 2.51092 34.7941 3.16376C35.9623 3.8417 37.5113 4.87118 38.2732 5.49891C39.035 6.12664 39.7207 6.75437 39.7968 6.87991C39.8476 7.00546 39.5429 7.85917 39.1112 8.7631C38.6033 9.76747 37.7145 10.9727 36.7495 11.9017C35.8099 12.8308 34.5656 13.7096 31.823 15.0404L30.9341 14.2871C30.4516 13.8603 29.4867 13.2576 28.7756 12.9061C28.09 12.5546 26.8456 12.1026 26.033 11.9017C25.2458 11.7009 24.0268 11.5251 23.3158 11.5251C22.6301 11.5251 21.3604 11.7009 20.5224 11.9017C19.6844 12.1277 18.3892 12.6048 17.6274 12.9814C16.891 13.3581 15.6974 14.2369 14.961 14.94C14.2499 15.643 13.3103 16.8985 12.8786 17.702C12.4215 18.5306 11.939 19.8111 11.7613 20.5644C11.5835 21.3428 11.4819 22.8242 11.5581 23.9542C11.6343 25.4105 11.8374 26.3395 12.9802 28.7249L11.0248 30.6583C9.14562 32.5415 9.09483 32.6168 9.42496 33.2948C9.60273 33.6714 10.009 34.274 10.3138 34.6255C10.6185 34.9771 11.3803 35.6299 12.0152 36.0819C12.6501 36.5338 13.3103 36.8854 13.4881 36.8854C13.6405 36.8854 14.6308 36.0568 17.475 33.2445L18.9987 33.8472C19.9383 34.2238 21.2588 34.5 22.427 34.5753C23.4681 34.6255 24.941 34.5502 25.6775 34.3996C26.3885 34.2489 27.6075 33.8472 28.3439 33.5207C29.0549 33.1692 30.1469 32.4913 31.823 31.1103L33.1689 31.738C33.8799 32.0895 35.0735 32.8428 35.7591 33.3952C36.4702 33.9727 37.4352 34.952 37.9176 35.6048C38.4001 36.2325 39.0858 37.3122 40 39.2707L39.0096 40.0993C38.4763 40.5513 37.4098 41.3548 36.6479 41.8821C35.8861 42.4094 34.5656 43.1878 33.7275 43.6146C32.8895 44.0415 31.5182 44.5939 30.6802 44.8701C29.8422 45.1463 28.4709 45.4978 27.6329 45.6987C26.7948 45.8745 24.7887 46 23.1888 46C21.5636 46 19.4812 45.8242 18.4908 45.5983C17.5258 45.3974 15.799 44.8701 14.6816 44.4683C13.5643 44.0415 11.7359 43.1124 10.6185 42.3843C9.50115 41.6561 7.8505 40.4007 6.98709 39.5469C6.09828 38.6932 4.87934 37.3373 4.26987 36.5087C3.6604 35.6801 2.7208 34.048 2.13673 32.8679C1.57805 31.6878 0.867002 29.8297 0.562267 28.7249C0.13056 27.143 0.00358713 25.988 0.00358713 23.2009C-0.0218074 20.3133 0.0797708 19.309 0.562267 17.5513C0.867002 16.3712 1.50187 14.6135 1.95897 13.6594C2.39067 12.7052 3.38106 10.9978 4.1429 9.91812C4.90473 8.81332 6.35222 7.20633 7.31722 6.3024C8.28221 5.42358 10.009 4.14301 11.1264 3.46507C12.2438 2.78712 14.123 1.88319 15.3165 1.45633C16.51 1.02948 18.44 0.552402 19.6336 0.351528C20.8271 0.175764 22.3 0.0251092 22.9349 0V0ZM23.265 16.5721C23.7729 16.5469 24.8141 16.7729 25.5505 17.024C26.4393 17.3504 27.2265 17.9028 28.0138 18.7314C28.7502 19.5349 29.2835 20.3886 29.5121 21.1921C29.7406 22.0207 29.8168 22.9498 29.7152 23.9542C29.5882 25.0087 29.3343 25.7871 28.7756 26.5906C28.3693 27.2183 27.6582 27.9716 27.2011 28.2729C26.744 28.5993 25.906 29.0262 25.3473 29.2271C24.7887 29.4279 23.8745 29.5786 23.3158 29.6037C22.7571 29.6037 21.7921 29.4279 21.1572 29.202C20.5224 29.0011 19.6082 28.4989 19.1257 28.1223C18.6432 27.7205 17.9067 26.7915 17.475 26.0633C16.8656 24.9585 16.7386 24.4061 16.7386 23.0753C16.7386 21.845 16.891 21.1419 17.3481 20.2129C17.7036 19.5349 18.44 18.6059 18.9987 18.1288C19.5574 17.6517 20.5224 17.1245 21.1572 16.9236C21.7921 16.7478 22.7317 16.5721 23.265 16.5721Z" fill="#3260FF"/>
</svg>
