<?xml version="1.0" encoding="UTF-8"?>
<svg xmlns="http://www.w3.org/2000/svg" version="1.1" xmlns:xlink="http://www.w3.org/1999/xlink" viewBox="0 0 400 329">
  <defs>
    <style>
      .cls-1 {
        fill: none;
      }

      .cls-2 {
        fill: #ad98c4;
        stroke: #ad98c4;
        stroke-miterlimit: 10;
        stroke-width: 10px;
      }

      .cls-3 {
        clip-path: url(#clippath);
      }
    </style>
    <clipPath id="clippath">
      <rect class="cls-1" x="-198.5" y="-438" width="799" height="1198.5"/>
    </clipPath>
  </defs>
  <!-- Generator: Adobe Illustrator 28.7.9, SVG Export Plug-In . SVG Version: 1.2.0 Build 218)  -->
  <g>
    <g id="Layer_1">
      <g class="cls-3">
        <path class="cls-2" d="M259.4,199.4c12.5-18.4,22.5-34.8,31.2-49.8.7-.6,1.4-1.2,2.1-1.8,9.3-8.1,18.9-16.4,29-24.4,57.6-45.5,79.1-94.2,74.4-107.5-.9-2.6-2.9-4.1-5.5-4.1-28.8,0-67.5,42.8-130.8,147.8-3.8,6.4-8.3,14.1-13.6,22.6-19.6,13.8-42.6,26.6-72.4,37-33.9,11.8-68.2,10.2-91.7-4.4-16.4-10.2-26.5-26.3-28.9-46.6-5.5-44.9,12-86.2,52.2-122.8,29.4-26.8,63.1-39.2,106-39.2s44.2,11.5,55.1,29.2c7.4,12.1,13.2,32.4-1.2,60.3-24.5,47.5-61.2,72.6-106.1,72.6s-28.4-7.1-31.4-19.4c-1.9-7.9,0-16.6,4.5-23,0,.5-.2,1-.2,1.5,0,6.6,5.4,12,12,12s12-5.4,12-12-5.4-12-12-12-6.9,2.3-7.7,2.9c-8.8,6.5-13.7,19.6-10.9,31.1,3.3,13.4,15.5,21.1,33.7,21.1,45.9,0,83.3-25.5,108.2-73.8,11.6-22.6,12-44.8,1.2-62.6-11.2-18.4-33.6-30.3-57.1-30.3-43.5,0-77.6,12.7-107.5,39.8-40.8,37.1-58.6,79-52.9,124.8,2.6,21,13,37.7,30,48.3,24.1,15,59.1,16.7,93.7,4.6,27.8-9.7,49.6-21.5,68.4-34.2-18.5,28.6-47,63.6-95,83.1-36.8-12-68.9-17.2-109.6-17.4h0c-.6,0-1.2,0-1.8,0h0c-16.6,0-26.1,3.9-29.6,8.7-2.1,2.8-2.3,6.1-.7,9.3,3.9,7.7,20.2,16.8,53.3,16.8s49.6-1.5,68.9-4.3c0,0,.1,0,.2,0,35.5,16.4,75.8,35,115.1,35,62.3,0,80.4-23.7,81.2-24.7l-1.9-1.4c-15.9,18.7-80.4,15.2-128.4-4.7-11.2-4.6-21.7-8.7-31.7-12.4,22.9-8.1,64-28.3,96.4-76.1M312.5,109.8c13.3-24.8,23.7-44.3,38.6-62.9,15.8-19.7,28.6-32.8,39.5-32.8s2.7.8,3.3,2.5c4.4,12.8-17,60-73.7,104.9-9.1,7.2-17.7,14.6-26.1,21.9,6.8-12,12.8-23.2,18.4-33.7M73.4,285.2c-4.6,0-9.1.2-13.8.2-29.9,0-47.3-7.8-51.2-15.5-1.2-2.4-1.1-4.7.5-6.9,3-4.1,11.7-7.7,27.2-7.7s13.8.6,22.5,2.1c18.5,3.1,39.2,12,61.1,22.1-14,3.3-29.4,5.3-46.3,5.8"/>
      </g>
    </g>
  </g>
</svg>