<?xml version="1.0" encoding="UTF-8"?>
<svg id="Lag_1" data-name="Lag 1" xmlns="http://www.w3.org/2000/svg" xmlns:xlink="http://www.w3.org/1999/xlink" viewBox="0 0 400 329">
  <defs>
    <style>
      .cls-1 {
        fill: none;
      }

      .cls-2 {
        fill: #ad98c4;
        stroke: #ad98c4;
        stroke-miterlimit: 10;
        stroke-width: 10px;
      }

      .cls-3 {
        clip-path: url(#clippath);
      }
    </style>
    <clipPath id="clippath">
      <rect class="cls-1" x="-197.5" y="-430.48" width="793.98" height="1190.98"/>
    </clipPath>
  </defs>
  <g id="Layer_1" data-name="Layer 1">
    <g class="cls-3">
      <path class="cls-2" d="M257.53,202.92c12.42-18.28,22.36-34.58,31-49.49.7-.6,1.39-1.19,2.09-1.79,9.24-8.05,18.78-16.3,28.82-24.25,57.24-45.21,78.6-93.61,73.93-106.83-.89-2.58-2.88-4.07-5.47-4.07-28.62,0-67.08,42.53-129.98,146.87-3.78,6.36-8.25,14.01-13.51,22.46-19.48,13.71-42.33,26.43-71.95,36.77-33.69,11.73-67.77,10.14-91.12-4.37-16.3-10.14-26.33-26.13-28.72-46.31-5.47-44.62,11.92-85.66,51.87-122.03,29.22-26.63,62.7-38.95,105.33-38.95s43.92,11.43,54.75,29.02c7.35,12.02,13.12,32.2-1.19,59.92-24.35,47.2-61.2,77.99-105.43,72.14-21.53-2.85-28.22-7.06-31.2-19.28-1.89-7.85,0-16.5,4.47-22.86.3.69-.2.99-.2,1.49,0,6.56,5.37,11.92,11.92,11.92s11.92-5.37,11.92-11.92-5.37-11.9-11.92-11.92c-4.27-.01-6.08,1.75-7.65,2.88-8.74,6.46-13.61,19.48-10.83,30.9,3.28,13.32,15.4,20.97,33.49,20.97,45.61,0,82.78-25.34,107.52-73.34,11.53-22.46,11.92-44.52,1.19-62.21-11.13-18.28-33.39-30.11-56.74-30.11-43.23,0-77.11,12.62-106.83,39.55-40.54,36.87-58.23,78.5-52.57,124.02,2.58,20.87,12.92,37.46,29.81,48,23.95,14.91,58.73,16.6,93.11,4.57,27.63-9.64,49.29-21.37,67.97-33.99-18.38,28.42-46.7,63.2-94.4,82.58-36.57-11.92-68.47-17.09-108.91-17.29h-1.79c-16.5,0-25.94,3.88-29.41,8.65-2.09,2.78-2.29,6.06-.7,9.24,3.88,7.65,20.07,16.69,52.97,16.69s49.29-1.49,68.47-4.27h.2c35.28,16.3,75.32,34.78,114.38,34.78,61.91,0,79.9-23.55,80.69-24.54l-1.89-1.39c-15.8,18.58-79.9,15.1-127.59-4.67-11.13-4.57-21.56-8.65-31.5-12.32,22.76-8.05,63.6-28.12,95.79-75.62M310.29,113.88c13.22-24.64,23.55-44.02,38.36-62.51,15.7-19.58,28.96-35.96,39.25-32.59,5.47,1.79,2.63,1.44,3.28,2.48,6.79,10.31-16.89,59.62-73.24,104.24-9.04,7.15-17.59,14.51-25.94,21.76,6.76-11.92,12.72-23.05,18.28-33.49M72.69,288.18c-4.57,0-9.04.2-13.71.2-29.71,0-47-7.75-50.88-15.4-1.19-2.38-1.09-4.67.5-6.86,2.98-4.07,11.63-7.65,27.03-7.65s13.71.6,22.36,2.09c18.38,3.08,38.95,11.92,60.72,21.96-13.91,3.28-29.22,5.27-46.01,5.76"/>
    </g>
  </g>
</svg>